# xmcd
#
# Track frame offsets:
#	300
#	16880
#	33689
#	51742
#	71473
#	89673
#
# Disc length: 1566 seconds
#
# Revision: 0
# Processed by: cddbd v1.5.1PL0 Copyright (c) Steve Scherf et al.
# Submitted via: audiograbber 1.83.01
#
DISCID=55061a06
DTITLE=MIKE BREEN - CRIMSON SHADES
DYEAR=2004
DGENRE=Acoustic
TTITLE0=MIKE BREEN DULL RYE
TTITLE1=MIKE BREEN THE BOTTLE
TTITLE2=MIKE BREEN PICTURES
TTITLE3=MIKE BREENSOMEONE ELSE'S SONG
TTITLE4=MIKE BREEN CRIMSON SHADES
TTITLE5=MIKE BREEN HALLELUJAH*
EXTD=A BRAND PRODUCTION
EXTT0=
EXTT1=
EXTT2=
EXTT3=
EXTT4=
EXTT5=*LEONARD COHEN
PLAYORDER=
